<svg xmlns="http://www.w3.org/2000/svg" version="1.1" xmlns:xlink="http://www.w3.org/1999/xlink" xmlns:svgjs="http://svgjs.dev/svgjs" width="1000" height="179" viewBox="0 0 1000 179"><g transform="matrix(1,0,0,1,-0.6060605722785226,0.0375337846793542)"><svg viewBox="0 0 396 71" data-background-color="#ffffff" preserveAspectRatio="xMidYMid meet" height="179" width="1000" xmlns="http://www.w3.org/2000/svg" xmlns:xlink="http://www.w3.org/1999/xlink"><g id="tight-bounds" transform="matrix(1,0,0,1,0.24000001337776666,-0.014887702302985417)"><svg viewBox="0 0 395.52 71.02977540460594" height="71.02977540460594" width="395.52"><g><svg viewBox="0 0 491.11726568374917 88.19768678914059" height="71.02977540460594" width="395.52"><g transform="matrix(1,0,0,1,0,12.189405337717698)"><svg viewBox="0 0 395.52 63.818876113705194" height="63.818876113705194" width="395.52"><g id="textblocktransform"><svg viewBox="0 0 395.52 63.818876113705194" height="63.818876113705194" width="395.52" id="textblock"><g><svg viewBox="0 0 395.52 31.344054010609227" height="31.344054010609227" width="395.52"><g transform="matrix(1,0,0,1,0,0)"><svg width="395.52" viewBox="1.4600000381469727 -35.45000076293945 454.1499938964844 36.11000061035156" height="31.344054010609227" data-palette-color="#ffdc00"><g class="wordmark-text-0" data-fill-palette-color="primary" id="text-0"><path d="M1.66 0L1.66 0Q1.54 0 1.5-0.07 1.46-0.15 1.46-0.2L1.46-0.2 1.46-1.51Q1.46-1.56 1.5-1.64 1.54-1.71 1.66-1.71L1.66-1.71Q2.42-1.71 3.19-1.82 3.96-1.93 4.59-2.29 5.22-2.66 5.63-3.34 6.03-4.03 6.03-5.2L6.03-5.2 6.03-29.66Q6.03-30.49 5.76-31.05 5.49-31.62 5-31.97 4.52-32.32 3.83-32.5 3.15-32.67 2.32-32.71L2.32-32.71Q2.12-32.71 2.12-32.91L2.12-32.91 2.12-34.23Q2.12-34.42 2.29-34.42L2.29-34.42 16.75-34.42Q16.87-34.42 16.91-34.35 16.94-34.28 16.94-34.23L16.94-34.23 16.94-32.91Q16.94-32.76 16.75-32.76L16.75-32.76Q16.02-32.76 15.33-32.63 14.65-32.5 14.14-32.13 13.62-31.76 13.31-31.09 12.99-30.42 12.99-29.32L12.99-29.32 12.99-19.26Q12.99-19.02 13.06-18.95 13.13-18.87 13.38-18.87L13.38-18.87 30.42-18.87Q30.66-18.87 30.74-18.95 30.81-19.02 30.81-19.26L30.81-19.26 30.81-29.71Q30.81-30.57 30.27-31.13 29.74-31.69 28.92-32.02 28.1-32.35 27.15-32.51 26.2-32.67 25.39-32.71L25.39-32.71Q25.2-32.71 25.2-32.91L25.2-32.91 25.2-34.23Q25.2-34.42 25.37-34.42L25.37-34.42 41.65-34.42Q41.77-34.42 41.81-34.35 41.85-34.28 41.85-34.23L41.85-34.23 41.85-32.91Q41.85-32.76 41.65-32.76L41.65-32.76Q40.92-32.76 40.22-32.63 39.53-32.5 38.98-32.13 38.43-31.76 38.1-31.09 37.77-30.42 37.77-29.32L37.77-29.32 37.77-5.15Q37.77-4.52 37.95-4.02 38.13-3.52 38.53-3.03L38.53-3.03Q38.92-2.49 39.81-2.12 40.7-1.76 42.33-1.71L42.33-1.71Q42.53-1.71 42.53-1.51L42.53-1.51 42.53-0.2Q42.53 0 42.33 0L42.33 0 24.61 0Q24.49 0 24.45-0.07 24.41-0.15 24.41-0.2L24.41-0.2 24.41-1.51Q24.41-1.56 24.45-1.64 24.49-1.71 24.61-1.71L24.61-1.71Q25.34-1.71 26.39-1.81 27.44-1.9 28.43-2.23 29.42-2.56 30.11-3.19 30.81-3.81 30.81-4.88L30.81-4.88 30.81-15.43Q30.81-15.67 30.74-15.75 30.66-15.82 30.42-15.82L30.42-15.82 13.38-15.82Q13.13-15.82 13.06-15.75 12.99-15.67 12.99-15.43L12.99-15.43 12.99-4.64Q12.99-3.81 13.35-3.25 13.72-2.69 14.32-2.34 14.92-2 15.7-1.86 16.48-1.71 17.31-1.71L17.31-1.71Q17.46-1.71 17.48-1.64 17.5-1.56 17.5-1.51L17.5-1.51 17.5-0.2Q17.5-0.15 17.48-0.07 17.46 0 17.33 0L17.33 0 1.66 0ZM44.11-0.2L44.11-1.15Q44.11-1.34 44.31-1.34L44.31-1.34Q44.77-1.37 45.4-1.48 46.02-1.59 46.66-1.94 47.31-2.29 47.92-2.99 48.53-3.69 48.95-4.91L48.95-4.91 58.76-33.37Q58.76-33.35 58.77-33.4 58.79-33.45 58.79-33.5L58.79-33.5Q58.79-33.67 58.65-33.92 58.52-34.18 58.52-34.3L58.52-34.3Q58.52-34.42 58.62-34.42L58.62-34.42 65.7-34.42Q65.74-34.4 65.83-34.38 65.92-34.35 65.96-34.23L65.96-34.23 76.29-5.25Q76.54-4.57 76.76-4.08 76.98-3.59 77.28-3.21 77.59-2.83 78.05-2.53 78.51-2.22 79.25-1.9L79.25-1.9Q79.59-1.73 80.17-1.54 80.76-1.34 81.3-1.34L81.3-1.34Q81.42-1.34 81.46-1.27 81.49-1.2 81.49-1.12L81.49-1.12 81.49-0.2Q81.49-0.15 81.46-0.07 81.42 0 81.3 0L81.3 0 64.16 0Q64.04 0 64-0.07 63.96-0.15 63.96-0.2L63.96-0.2 63.96-1.15Q63.96-1.2 64-1.27 64.04-1.34 64.16-1.34L64.16-1.34Q64.26-1.34 64.35-1.35 64.45-1.37 64.5-1.37L64.5-1.37Q64.77-1.39 65.27-1.42 65.77-1.44 66.35-1.5 66.94-1.56 67.54-1.7 68.14-1.83 68.63-2.09 69.11-2.34 69.43-2.76 69.75-3.17 69.75-3.78L69.75-3.78Q69.75-3.93 69.7-4.13L69.7-4.13 66.5-12.94Q66.48-12.99 66.42-13.16 66.35-13.33 66.22-13.51 66.09-13.7 65.88-13.84 65.67-13.99 65.38-13.99L65.38-13.99 56.56-13.99Q56.25-13.99 56.03-13.84 55.81-13.7 55.66-13.53 55.52-13.35 55.43-13.18 55.34-13.01 55.34-12.99L55.34-12.99Q54.56-10.69 54.03-9.12 53.49-7.54 53.13-6.52 52.78-5.49 52.59-4.93 52.39-4.37 52.3-4.11 52.22-3.86 52.21-3.8 52.19-3.74 52.19-3.74L52.19-3.74Q52.19-3.66 52.22-3.58 52.24-3.49 52.27-3.42L52.27-3.42Q52.46-2.81 52.99-2.4 53.51-2 54.2-1.77 54.88-1.54 55.6-1.44 56.32-1.34 56.88-1.34L56.88-1.34 57.52-1.34Q57.64-1.34 57.68-1.27 57.71-1.2 57.71-1.15L57.71-1.15 57.71-0.2Q57.71-0.15 57.68-0.07 57.64 0 57.52 0L57.52 0 44.31 0Q44.11 0 44.11-0.2L44.11-0.2ZM59.98-26.39L56.91-17.5Q56.86-17.38 56.83-17.26 56.81-17.14 56.81-17.02L56.81-17.02Q56.81-16.87 56.88-16.78 56.96-16.7 57.18-16.7L57.18-16.7 64.5-16.7Q64.77-16.7 64.85-16.81 64.94-16.92 64.94-17.07L64.94-17.07Q64.94-17.19 64.91-17.29 64.89-17.38 64.84-17.5L64.84-17.5 61.59-26.42Q61.47-26.76 61.23-26.92 60.98-27.08 60.79-27.08L60.79-27.08Q60.59-27.08 60.35-26.89 60.1-26.71 59.98-26.39L59.98-26.39ZM83.61 0L82.91 0Q82.76 0 82.73-0.09 82.71-0.17 82.71-0.2L82.71-0.2 82.71-1.25Q82.71-1.27 82.73-1.35 82.76-1.44 82.91-1.44L82.91-1.44 83.44-1.44Q83.95-1.44 84.71-1.5 85.47-1.56 86.18-1.84 86.88-2.12 87.39-2.7 87.89-3.27 87.89-4.27L87.89-4.27 87.89-30.3Q87.89-31.05 87.56-31.58 87.23-32.1 86.73-32.43 86.23-32.76 85.62-32.91 85-33.06 84.47-33.06L84.47-33.06 82.91-33.06Q82.76-33.06 82.73-33.14 82.71-33.23 82.71-33.25L82.71-33.25 82.71-34.3Q82.71-34.33 82.73-34.41 82.76-34.5 82.91-34.5L82.91-34.5 83.44-34.5 93.48-34.67Q94.89-34.69 96.54-34.7 98.19-34.72 99.6-34.72L99.6-34.72Q101.14-34.72 102.36-34.68 103.58-34.64 104.71-34.53 105.83-34.42 106.98-34.25 108.12-34.08 109.54-33.79L109.54-33.79Q112.25-33.23 114.58-31.71 116.91-30.2 118.61-28.05 120.31-25.9 121.27-23.29 122.24-20.68 122.24-17.94L122.24-17.94Q122.24-15.31 121.5-12.95 120.77-10.6 119.47-8.61 118.16-6.62 116.36-5.02 114.57-3.42 112.42-2.31 110.27-1.2 107.86-0.6 105.44 0 102.9 0L102.9 0 83.61 0ZM94.84-3.91L94.84-3.78Q94.84-3.08 95.3-2.69 95.75-2.29 96.49-2.11 97.24-1.93 98.24-1.9 99.24-1.88 100.34-1.88L100.34-1.88Q107.59-1.88 111.21-5.88 114.84-9.89 114.84-17.55L114.84-17.55Q114.84-20.92 114.02-23.73 113.2-26.54 111.53-28.56 109.86-30.59 107.33-31.71 104.8-32.84 101.36-32.84L101.36-32.84 95.45-32.84Q95.09-32.84 94.97-32.68 94.84-32.52 94.84-32.18L94.84-32.18 94.84-3.91ZM137.54-4.64L137.54-4.64Q137.54-3.81 137.8-3.25 138.05-2.69 138.53-2.34 139.01-2 139.7-1.86 140.4-1.71 141.25-1.71L141.25-1.71Q141.45-1.71 141.45-1.51L141.45-1.51 141.45-0.2Q141.45-0.12 141.42-0.06 141.4 0 141.25 0L141.25 0 126.82 0Q126.7 0 126.66-0.07 126.63-0.15 126.63-0.2L126.63-0.2 126.63-1.51Q126.63-1.56 126.66-1.64 126.7-1.71 126.82-1.71L126.82-1.71Q127.68-1.71 128.37-1.82 129.07-1.93 129.56-2.29 130.05-2.66 130.31-3.34 130.58-4.03 130.58-5.2L130.58-5.2 130.58-29.79Q130.58-30.62 130.33-31.18 130.07-31.74 129.59-32.08 129.12-32.42 128.42-32.57 127.73-32.71 126.87-32.71L126.87-32.71Q126.68-32.71 126.68-32.91L126.68-32.91 126.68-34.23Q126.68-34.42 126.87-34.42L126.87-34.42 141.3-34.42Q141.42-34.42 141.46-34.35 141.5-34.28 141.5-34.23L141.5-34.23 141.5-32.91Q141.5-32.86 141.46-32.79 141.42-32.71 141.3-32.71L141.3-32.71Q140.45-32.71 139.75-32.6 139.06-32.5 138.57-32.13 138.08-31.76 137.81-31.08 137.54-30.4 137.54-29.22L137.54-29.22 137.54-4.64ZM158.53-30.69L158.53-30.69Q158.53-31.2 158.33-31.26 158.12-31.32 157.83-31.37L157.83-31.37 149.55-31.37Q148.65-31.18 148.13-30.65 147.62-30.13 147.33-29.42 147.04-28.71 146.89-27.89 146.74-27.08 146.57-26.32L146.57-26.32Q146.52-26.1 146.47-25.79 146.43-25.49 146.38-25.44L146.38-25.44Q146.33-25.37 146.21-25.37L146.21-25.37 145.4-25.37Q145.25-25.37 145.25-25.46L145.25-25.46 145.25-26.27 146.16-34.62Q146.21-34.89 146.38-35.13 146.55-35.38 146.91-35.38L146.91-35.38Q147.08-35.38 147.24-35.28 147.4-35.18 147.55-35.05 147.7-34.91 147.83-34.79 147.96-34.67 148.11-34.62L148.11-34.62Q148.4-34.5 148.66-34.46 148.92-34.42 149.23-34.42L149.23-34.42 174.82-34.42Q175.14-34.42 175.39-34.46 175.65-34.5 175.94-34.62L175.94-34.62Q176.09-34.67 176.22-34.79 176.36-34.91 176.5-35.05 176.65-35.18 176.81-35.28 176.97-35.38 177.14-35.38L177.14-35.38Q177.5-35.38 177.68-35.13 177.85-34.89 177.9-34.62L177.9-34.62 178.8-26.27 178.8-25.46Q178.8-25.37 178.65-25.37L178.65-25.37 177.85-25.37Q177.72-25.37 177.68-25.44L177.68-25.44Q177.63-25.49 177.58-25.79 177.53-26.1 177.48-26.32L177.48-26.32Q177.31-27.08 177.16-27.89 177.02-28.71 176.72-29.42 176.43-30.13 175.92-30.65 175.41-31.18 174.5-31.37L174.5-31.37 166.2-31.37Q165.91-31.32 165.7-31.26 165.49-31.2 165.49-30.69L165.49-30.69 165.49-4.76Q165.49-4.03 165.86-3.45 166.23-2.88 166.85-2.44 167.47-2 168.31-1.73 169.16-1.46 170.11-1.37L170.11-1.37Q170.38-1.34 170.79-1.34 171.21-1.34 171.5-1.34L171.5-1.34Q171.62-1.34 171.66-1.27 171.69-1.2 171.69-1.15L171.69-1.15 171.69-0.2Q171.69-0.15 171.66-0.07 171.62 0 171.5 0L171.5 0 152.53 0Q152.41 0 152.37-0.07 152.33-0.15 152.33-0.2L152.33-0.2 152.33-1.15Q152.33-1.2 152.37-1.27 152.41-1.34 152.53-1.34L152.53-1.34Q152.8-1.34 153.22-1.34 153.65-1.34 153.92-1.37L153.92-1.37Q154.87-1.46 155.72-1.73 156.56-2 157.18-2.44 157.8-2.88 158.17-3.45 158.53-4.03 158.53-4.76L158.53-4.76 158.53-30.69ZM182.02 0L182.02 0Q181.9 0 181.86-0.07 181.82-0.15 181.82-0.2L181.82-0.2 181.82-1.51Q181.82-1.56 181.86-1.64 181.9-1.71 182.02-1.71L182.02-1.71Q182.78-1.71 183.54-1.82 184.31-1.93 184.95-2.29 185.58-2.66 185.99-3.34 186.39-4.03 186.39-5.2L186.39-5.2 186.39-29.66Q186.39-30.49 186.12-31.05 185.85-31.62 185.36-31.97 184.88-32.32 184.19-32.5 183.51-32.67 182.68-32.71L182.68-32.71Q182.48-32.71 182.48-32.91L182.48-32.91 182.48-34.23Q182.48-34.42 182.65-34.42L182.65-34.42 197.11-34.42Q197.23-34.42 197.27-34.35 197.3-34.28 197.3-34.23L197.3-34.23 197.3-32.91Q197.3-32.76 197.11-32.76L197.11-32.76Q196.37-32.76 195.69-32.63 195.01-32.5 194.49-32.13 193.98-31.76 193.66-31.09 193.35-30.42 193.35-29.32L193.35-29.32 193.35-19.26Q193.35-19.02 193.42-18.95 193.49-18.87 193.74-18.87L193.74-18.87 210.78-18.87Q211.02-18.87 211.1-18.95 211.17-19.02 211.17-19.26L211.17-19.26 211.17-29.71Q211.17-30.57 210.63-31.13 210.09-31.69 209.28-32.02 208.46-32.35 207.51-32.51 206.55-32.67 205.75-32.71L205.75-32.71Q205.55-32.71 205.55-32.91L205.55-32.91 205.55-34.23Q205.55-34.42 205.72-34.42L205.72-34.42 222.01-34.42Q222.13-34.42 222.17-34.35 222.2-34.28 222.2-34.23L222.2-34.23 222.2-32.91Q222.2-32.76 222.01-32.76L222.01-32.76Q221.28-32.76 220.58-32.63 219.88-32.5 219.34-32.13 218.79-31.76 218.46-31.09 218.13-30.42 218.13-29.32L218.13-29.32 218.13-5.15Q218.13-4.52 218.31-4.02 218.49-3.52 218.88-3.03L218.88-3.03Q219.27-2.49 220.17-2.12 221.06-1.76 222.69-1.71L222.69-1.71Q222.89-1.71 222.89-1.51L222.89-1.51 222.89-0.2Q222.89 0 222.69 0L222.69 0 204.97 0Q204.85 0 204.81-0.07 204.77-0.15 204.77-0.2L204.77-0.2 204.77-1.51Q204.77-1.56 204.81-1.64 204.85-1.71 204.97-1.71L204.97-1.71Q205.7-1.71 206.75-1.81 207.8-1.9 208.79-2.23 209.78-2.56 210.47-3.19 211.17-3.81 211.17-4.88L211.17-4.88 211.17-15.43Q211.17-15.67 211.1-15.75 211.02-15.82 210.78-15.82L210.78-15.82 193.74-15.82Q193.49-15.82 193.42-15.75 193.35-15.67 193.35-15.43L193.35-15.43 193.35-4.64Q193.35-3.81 193.71-3.25 194.08-2.69 194.68-2.34 195.28-2 196.06-1.86 196.84-1.71 197.67-1.71L197.67-1.71Q197.81-1.71 197.84-1.64 197.86-1.56 197.86-1.51L197.86-1.51 197.86-0.2Q197.86-0.15 197.84-0.07 197.81 0 197.69 0L197.69 0 182.02 0Z" fill="#ffdc00" data-fill-palette-color="primary"></path><path d="M238.88-16.99L238.88-16.99Q238.88-19.73 239.56-22.16 240.25-24.58 241.49-26.64 242.74-28.69 244.49-30.32 246.25-31.96 248.39-33.09 250.52-34.23 252.97-34.84 255.41-35.45 258.07-35.45L258.07-35.45Q260.31-35.45 262.4-35.05 264.49-34.64 266.71-34.11L266.71-34.11Q267.08-34.01 267.48-33.86 267.88-33.72 268.24-33.58 268.59-33.45 268.88-33.35 269.18-33.25 269.32-33.25L269.32-33.25Q269.37-33.25 269.65-33.35 269.93-33.45 270.06-33.45L270.06-33.45 271.18-33.45Q271.47-33.45 271.47-33.03L271.47-33.03 271.47-25.07Q271.47-24.93 271.36-24.88 271.25-24.83 270.89-24.83L270.89-24.83Q270.81-24.83 270.51-24.84 270.2-24.85 270.13-24.98L270.13-24.98Q270.08-25.05 269.95-25.27 269.81-25.49 269.65-25.72 269.49-25.95 269.36-26.16 269.23-26.37 269.2-26.44L269.2-26.44Q268.27-28.27 267.17-29.53 266.08-30.79 264.75-31.57 263.41-32.35 261.85-32.7 260.29-33.06 258.46-33.06L258.46-33.06Q256.14-33.06 254.35-32.52 252.55-31.98 251.21-31.01 249.87-30.03 248.95-28.66 248.03-27.29 247.46-25.67 246.89-24.05 246.63-22.2 246.37-20.36 246.37-18.41L246.37-18.41Q246.37-16.33 246.67-14.29 246.96-12.26 247.62-10.41 248.28-8.57 249.32-6.99 250.35-5.42 251.82-4.26 253.28-3.1 255.24-2.44 257.19-1.78 259.66-1.78L259.66-1.78Q261.73-1.78 263.52-2.4 265.32-3.03 266.81-4.09 268.3-5.15 269.46-6.53 270.62-7.91 271.45-9.42L271.45-9.42Q271.5-9.55 271.56-9.56 271.62-9.57 271.74-9.57L271.74-9.57 272.99-9.57Q273.06-9.57 273.14-9.51 273.23-9.45 273.23-9.25L273.23-9.25Q273.23-9.18 273.12-8.87 273.01-8.57 272.89-8.35L272.89-8.35 269.52-0.93Q269.47-0.85 269.37-0.81 269.27-0.76 269.2-0.76L269.2-0.76Q268.62-0.76 268.38-0.85 268.15-0.95 267.91-0.95L267.91-0.95Q267.17-0.95 265.97-0.7 264.76-0.44 263.35-0.15 261.95 0.15 260.52 0.4 259.09 0.66 257.97 0.66L257.97 0.66Q255.41 0.66 252.99 0.1 250.57-0.46 248.45-1.53 246.33-2.59 244.57-4.14 242.81-5.69 241.54-7.64 240.27-9.59 239.57-11.95 238.88-14.31 238.88-16.99ZM275.28-0.54L275.28-1.25Q275.28-1.27 275.3-1.35 275.33-1.44 275.47-1.44L275.47-1.44 276.01-1.44Q277.04-1.51 278.11-1.53 279.18-1.54 280.06-1.79 280.94-2.05 281.5-2.7 282.06-3.34 282.06-4.71L282.06-4.71 282.06-29.71Q282.06-30.66 281.67-31.26 281.28-31.86 280.65-32.23 280.01-32.59 279.21-32.78 278.4-32.96 277.57-33.08L277.57-33.08 277.06-33.08Q276.94-33.08 276.9-33.15 276.86-33.23 276.86-33.28L276.86-33.28 276.86-34.23Q276.86-34.28 276.9-34.35 276.94-34.42 277.06-34.42L277.06-34.42 301.38-34.42Q301.82-34.42 302.01-34.27 302.21-34.11 302.26-33.57L302.26-33.57 302.69-25.76Q302.69-25.63 302.49-25.57 302.28-25.51 302.11-25.51L302.11-25.51Q301.91-25.51 301.72-25.56 301.52-25.61 301.45-25.71L301.45-25.71Q301.28-25.95 301.21-26.43 301.13-26.9 301.05-27.49 300.96-28.08 300.8-28.71 300.64-29.35 300.33-29.88 300.01-30.42 299.46-30.82 298.91-31.23 298.06-31.37L298.06-31.37 289.34-31.37Q289.02-31.37 289.02-31.05L289.02-31.05 289.02-19.41Q289.02-19.17 289.27-19.17L289.27-19.17 296.25-19.17Q296.86-19.17 297.46-19.32 298.06-19.48 298.51-19.9 298.96-20.31 299.24-21.06 299.52-21.8 299.52-22.97L299.52-22.97Q299.52-23.17 299.72-23.17L299.72-23.17 300.67-23.17Q300.86-23.17 300.86-22.97L300.86-22.97 300.86-11.79Q300.86-11.67 300.79-11.63 300.72-11.6 300.67-11.6L300.67-11.6 299.72-11.6Q299.59-11.6 299.56-11.67 299.52-11.74 299.52-11.79L299.52-11.79Q299.52-13.16 299.24-14 298.96-14.84 298.5-15.32 298.03-15.8 297.43-15.95 296.84-16.11 296.18-16.11L296.18-16.11 289.27-16.11Q289.02-16.11 289.02-15.87L289.02-15.87 289.02-5.2Q289.02-4.49 289.24-4.06 289.46-3.64 289.84-3.42 290.22-3.2 290.71-3.13 291.2-3.05 291.73-3.05L291.73-3.05 298.4-3.05Q299.81-3.05 300.77-3.7 301.72-4.35 302.3-5.27 302.89-6.2 303.17-7.2 303.45-8.2 303.52-8.91L303.52-8.91Q303.57-9.23 303.84-9.41 304.11-9.59 304.45-9.59L304.45-9.59Q304.57-9.59 304.75-9.5 304.92-9.4 304.92-9.28L304.92-9.28 304.11-0.34Q304.06-0.22 303.98-0.11 303.89 0 303.77 0L303.77 0 275.47 0Q275.33 0 275.3-0.09 275.28-0.17 275.28-0.2L275.28-0.2 275.28-0.54ZM308.72 0L308.72 0Q308.67 0 308.6-0.06 308.53-0.12 308.53-0.2L308.53-0.2 308.53-1.27Q308.53-1.46 308.72-1.46L308.72-1.46Q308.99-1.46 309.33-1.46 309.67-1.46 310-1.49 310.33-1.51 310.6-1.54 310.87-1.56 311.02-1.64L311.02-1.64Q311.63-1.93 312.02-2.42 312.41-2.91 312.62-3.54 312.82-4.17 312.9-4.93 312.97-5.69 312.97-6.54L312.97-6.54 312.97-30.93Q312.97-31.59 312.45-31.99 311.92-32.4 311.22-32.6 310.53-32.81 309.81-32.89 309.09-32.96 308.72-32.96L308.72-32.96Q308.6-32.96 308.56-33.03 308.53-33.11 308.53-33.15L308.53-33.15 308.53-34.23Q308.53-34.28 308.56-34.35 308.6-34.42 308.72-34.42L308.72-34.42 319.78-34.42 340.83-11.13Q340.95-11.01 341-10.95 341.05-10.89 341.12-10.89L341.12-10.89Q341.22-10.89 341.24-10.96 341.27-11.04 341.27-11.11L341.27-11.11 341.27-25.61Q341.27-28.03 341.1-29.48 340.92-30.93 340.46-31.7 340-32.47 339.22-32.71 338.43-32.96 337.21-32.96L337.21-32.96 335.97-32.96Q335.85-32.96 335.81-33.03 335.77-33.11 335.77-33.15L335.77-33.15 335.77-34.23Q335.77-34.28 335.81-34.35 335.85-34.42 335.97-34.42L335.97-34.42 349.4-34.42Q349.54-34.42 349.57-34.35 349.59-34.28 349.59-34.23L349.59-34.23 349.59-33.15Q349.59-33.11 349.55-33.03 349.52-32.96 349.4-32.96L349.4-32.96Q348.91-32.96 348.14-32.76 347.37-32.57 346.64-32.2 345.9-31.84 345.38-31.3 344.86-30.76 344.86-30.08L344.86-30.08 344.86-1.2Q344.86-0.78 344.66-0.5 344.46-0.22 344.16-0.05 343.85 0.12 343.5 0.21 343.15 0.29 342.85 0.29L342.85 0.29Q342.36 0.29 341.72 0.09 341.07-0.12 340.44-0.83L340.44-0.83 317.39-26.39Q317.22-26.56 317.15-26.6 317.07-26.64 316.95-26.64L316.95-26.64Q316.83-26.64 316.83-26.39L316.83-26.39 316.83-4.59Q316.83-3.91 317.16-3.41 317.49-2.91 318-2.55 318.51-2.2 319.13-1.99 319.76-1.78 320.36-1.66 320.95-1.54 321.43-1.5 321.91-1.46 322.15-1.46L322.15-1.46Q322.27-1.46 322.32-1.37L322.32-1.37Q322.35-1.32 322.35-1.27L322.35-1.27 322.35-0.2Q322.35-0.15 322.31-0.07 322.27 0 322.15 0L322.15 0 308.72 0ZM365.29-30.69L365.29-30.69Q365.29-31.2 365.08-31.26 364.87-31.32 364.58-31.37L364.58-31.37 356.3-31.37Q355.4-31.18 354.89-30.65 354.37-30.13 354.08-29.42 353.79-28.71 353.64-27.89 353.5-27.08 353.32-26.32L353.32-26.32Q353.28-26.1 353.23-25.79 353.18-25.49 353.13-25.44L353.13-25.44Q353.08-25.37 352.96-25.37L352.96-25.37 352.15-25.37Q352.01-25.37 352.01-25.46L352.01-25.46 352.01-26.27 352.91-34.62Q352.96-34.89 353.13-35.13 353.3-35.38 353.67-35.38L353.67-35.38Q353.84-35.38 354-35.28 354.15-35.18 354.3-35.05 354.45-34.91 354.58-34.79 354.72-34.67 354.86-34.62L354.86-34.62Q355.16-34.5 355.41-34.46 355.67-34.42 355.99-34.42L355.99-34.42 381.57-34.42Q381.89-34.42 382.15-34.46 382.4-34.5 382.69-34.62L382.69-34.62Q382.84-34.67 382.98-34.79 383.11-34.91 383.26-35.05 383.4-35.18 383.56-35.28 383.72-35.38 383.89-35.38L383.89-35.38Q384.26-35.38 384.43-35.13 384.6-34.89 384.65-34.62L384.65-34.62 385.55-26.27 385.55-25.46Q385.55-25.37 385.4-25.37L385.4-25.37 384.6-25.37Q384.48-25.37 384.43-25.44L384.43-25.44Q384.38-25.49 384.33-25.79 384.28-26.1 384.23-26.32L384.23-26.32Q384.06-27.08 383.92-27.89 383.77-28.71 383.48-29.42 383.18-30.13 382.67-30.65 382.16-31.18 381.25-31.37L381.25-31.37 372.95-31.37Q372.66-31.32 372.45-31.26 372.25-31.2 372.25-30.69L372.25-30.69 372.25-4.76Q372.25-4.03 372.61-3.45 372.98-2.88 373.6-2.44 374.22-2 375.07-1.73 375.91-1.46 376.86-1.37L376.86-1.37Q377.13-1.34 377.54-1.34 377.96-1.34 378.25-1.34L378.25-1.34Q378.37-1.34 378.41-1.27 378.45-1.2 378.45-1.15L378.45-1.15 378.45-0.2Q378.45-0.15 378.41-0.07 378.37 0 378.25 0L378.25 0 359.28 0Q359.16 0 359.12-0.07 359.09-0.15 359.09-0.2L359.09-0.2 359.09-1.15Q359.09-1.2 359.12-1.27 359.16-1.34 359.28-1.34L359.28-1.34Q359.55-1.34 359.98-1.34 360.4-1.34 360.67-1.37L360.67-1.37Q361.63-1.46 362.47-1.73 363.31-2 363.93-2.44 364.55-2.88 364.92-3.45 365.29-4.03 365.29-4.76L365.29-4.76 365.29-30.69ZM387.28-0.54L387.28-1.25Q387.28-1.27 387.31-1.35 387.33-1.44 387.48-1.44L387.48-1.44 388.01-1.44Q389.04-1.51 390.11-1.53 391.19-1.54 392.07-1.79 392.95-2.05 393.51-2.7 394.07-3.34 394.07-4.71L394.07-4.71 394.07-29.71Q394.07-30.66 393.68-31.26 393.29-31.86 392.65-32.23 392.02-32.59 391.21-32.78 390.41-32.96 389.58-33.08L389.58-33.08 389.06-33.08Q388.94-33.08 388.91-33.15 388.87-33.23 388.87-33.28L388.87-33.28 388.87-34.23Q388.87-34.28 388.91-34.35 388.94-34.42 389.06-34.42L389.06-34.42 413.38-34.42Q413.82-34.42 414.02-34.27 414.21-34.11 414.26-33.57L414.26-33.57 414.7-25.76Q414.7-25.63 414.49-25.57 414.28-25.51 414.11-25.51L414.11-25.51Q413.92-25.51 413.72-25.56 413.53-25.61 413.45-25.71L413.45-25.71Q413.28-25.95 413.21-26.43 413.14-26.9 413.05-27.49 412.97-28.08 412.81-28.71 412.65-29.35 412.33-29.88 412.01-30.42 411.46-30.82 410.91-31.23 410.06-31.37L410.06-31.37 401.34-31.37Q401.03-31.37 401.03-31.05L401.03-31.05 401.03-19.41Q401.03-19.17 401.27-19.17L401.27-19.17 408.25-19.17Q408.86-19.17 409.46-19.32 410.06-19.48 410.51-19.9 410.96-20.31 411.24-21.06 411.52-21.8 411.52-22.97L411.52-22.97Q411.52-23.17 411.72-23.17L411.72-23.17 412.67-23.17Q412.87-23.17 412.87-22.97L412.87-22.97 412.87-11.79Q412.87-11.67 412.79-11.63 412.72-11.6 412.67-11.6L412.67-11.6 411.72-11.6Q411.6-11.6 411.56-11.67 411.52-11.74 411.52-11.79L411.52-11.79Q411.52-13.16 411.24-14 410.96-14.84 410.5-15.32 410.04-15.8 409.44-15.95 408.84-16.11 408.18-16.11L408.18-16.11 401.27-16.11Q401.03-16.11 401.03-15.87L401.03-15.87 401.03-5.2Q401.03-4.49 401.25-4.06 401.47-3.64 401.84-3.42 402.22-3.2 402.71-3.13 403.2-3.05 403.74-3.05L403.74-3.05 410.4-3.05Q411.82-3.05 412.77-3.7 413.72-4.35 414.31-5.27 414.89-6.2 415.17-7.2 415.46-8.2 415.53-8.91L415.53-8.91Q415.58-9.23 415.85-9.41 416.11-9.59 416.46-9.59L416.46-9.59Q416.58-9.59 416.75-9.5 416.92-9.4 416.92-9.28L416.92-9.28 416.11-0.34Q416.07-0.22 415.98-0.11 415.9 0 415.77 0L415.77 0 387.48 0Q387.33 0 387.31-0.09 387.28-0.17 387.28-0.2L387.28-0.2 387.28-0.54ZM420.14-0.98L420.14-1.27Q420.14-1.29 420.17-1.38 420.19-1.46 420.34-1.46L420.34-1.46Q420.48-1.46 420.8-1.51 421.12-1.56 421.46-1.61 421.8-1.66 422.09-1.72 422.39-1.78 422.51-1.81L422.51-1.81Q423.9-2.12 424.45-2.84 425-3.56 425-4.64L425-4.64 425-29.44Q425-30.66 424.49-31.37 423.97-32.08 423.3-32.43 422.63-32.79 422.01-32.87 421.39-32.96 421.17-32.96L421.17-32.96 420.24-32.96Q420.12-32.96 420.08-33.03 420.04-33.11 420.04-33.15L420.04-33.15 420.04-34.23Q420.04-34.28 420.07-34.34 420.09-34.4 420.24-34.42L420.24-34.42Q420.26-34.42 420.35-34.42 420.43-34.42 420.7-34.44 420.97-34.45 421.48-34.46 422-34.47 422.92-34.5L422.92-34.5Q424.27-34.52 425.79-34.57 427.32-34.62 428.88-34.67 430.44-34.72 431.97-34.75 433.5-34.79 434.84-34.79L434.84-34.79 437.3-34.79Q439.23-34.79 441.23-34.13 443.24-33.47 444.86-32.19 446.48-30.91 447.52-29 448.56-27.1 448.56-24.61L448.56-24.61Q448.56-23 448.12-21.74 447.68-20.48 446.91-19.52 446.14-18.55 445.08-17.82 444.02-17.09 442.77-16.53L442.77-16.53 450.17-4.81Q451.12-3.3 452.39-2.06 453.66-0.83 455.35-0.34L455.35-0.34Q455.54-0.29 455.58-0.21 455.61-0.12 455.61 0L455.61 0Q455.61 0.37 455.42 0.49 455.22 0.61 454.81 0.61L454.81 0.61Q453.78 0.61 452.48 0.48 451.17 0.34 449.85 0.04 448.53-0.27 447.35-0.76 446.17-1.25 445.36-1.98L445.36-1.98Q444.58-2.66 443.77-3.71 442.97-4.76 442.15-5.97 441.33-7.18 440.54-8.48 439.75-9.79 439-11.04 438.26-12.28 437.57-13.35 436.89-14.43 436.33-15.19L436.33-15.19 432.52-15.45Q432.49-15.45 432.32-15.45 432.15-15.45 432.08-15.41L432.08-15.41Q432.01-15.36 431.98-15.31 431.96-15.26 431.96-15.11L431.96-15.11 431.96-4.71Q431.96-4.05 432.13-3.56 432.3-3.08 432.7-2.72 433.1-2.37 433.75-2.15 434.4-1.93 435.33-1.81L435.33-1.81Q435.47-1.78 435.75-1.73 436.03-1.68 436.36-1.62 436.69-1.56 437.01-1.51 437.33-1.46 437.55-1.46L437.55-1.46Q437.69-1.46 437.72-1.39 437.74-1.32 437.74-1.27L437.74-1.27 437.74-0.2Q437.74-0.15 437.71-0.07 437.67 0 437.55 0L437.55 0 420.34 0Q420.21 0 420.18-0.34 420.14-0.68 420.14-0.98L420.14-0.98ZM431.96-18.63L432.01-17.9Q432.03-17.7 432.12-17.54 432.2-17.38 432.47-17.36L432.47-17.36Q432.69-17.33 433.13-17.27 433.57-17.21 434.35-17.21L434.35-17.21Q436.5-17.21 437.89-17.87 439.28-18.53 440.09-19.64 440.89-20.75 441.2-22.19 441.5-23.63 441.5-25.2L441.5-25.2Q441.5-26.83 440.99-28.3 440.48-29.76 439.56-30.83 438.65-31.91 437.36-32.54 436.08-33.18 434.54-33.18L434.54-33.18Q434.2-33.18 434.01-33.17 433.81-33.15 433.63-33.14 433.45-33.13 433.21-33.12 432.98-33.11 432.57-33.08L432.57-33.08Q432.42-33.08 432.19-33.02 431.96-32.96 431.96-32.69L431.96-32.69 431.96-18.63Z" fill="#ffffff" data-fill-palette-color="secondary"></path></g></svg></g></svg></g><g transform="matrix(1,0,0,1,281.359841414705,38.74363290521781)"><svg viewBox="0 0 114.160158585295 25.075243208487382" height="25.075243208487382" width="114.160158585295"><g transform="matrix(1,0,0,1,0,0)"><svg width="114.160158585295" viewBox="3.0299999713897705 -39.599998474121094 247.50999450683594 53.269996643066406" height="25.075243208487382" data-palette-color="#ffffff"><g class="slogan-text-1" data-fill-palette-color="secondary" id="text-1"><path d="M22.39 0L20.73-13.13Q20.17-12.04 19.54-10.94 18.92-9.84 18.21-8.74L18.21-8.74Q16.94-6.45 15.52-4.19 14.09-1.93 12.6 0L12.6 0 6.52 0 3.03-25.88 9.45-25.88 10.77-8.98Q10.79-7.86 10.8-6.74 10.82-5.62 10.86-4.49L10.86-4.49 11.35-4.49Q14.14-8.37 16.2-12.35 18.26-16.33 19.7-19.97L19.7-19.97 18.92-25.88 25.15-25.88 26.25-11.67 26.46-8.33Q26.49-7.37 26.5-6.41 26.51-5.44 26.56-4.49L26.56-4.49 27.05-4.49Q28.91-7.01 30.31-9.57 31.71-12.13 32.76-14.79 33.81-17.46 34.56-20.21 35.3-22.97 35.82-25.88L35.82-25.88 41.75-25.88Q40.72-22.14 39.43-18.76 38.13-15.38 36.5-12.22 34.86-9.06 32.82-6.03 30.79-3 28.27 0L28.27 0 22.39 0ZM61.79-9.42L63.13-21.07Q62.01-21.7 60.95-21.92 59.89-22.14 59.1-22.14L59.1-22.14Q57.37-22.14 55.76-21.35 54.15-20.56 52.9-19.09 51.66-17.63 50.91-15.58 50.17-13.53 50.17-11.01L50.17-11.01Q50.17-9.62 50.42-8.35 50.68-7.08 51.21-6.12 51.73-5.15 52.55-4.58 53.37-4 54.51-4L54.51-4Q55.44-4 56.37-4.39 57.3-4.79 58.23-5.51 59.15-6.23 60.04-7.21 60.94-8.2 61.79-9.42L61.79-9.42ZM69.68-26.39L66.65 0 61.84 0 61.64-5.52Q60.45-4.15 59.31-3.05 58.18-1.95 57-1.16 55.83-0.37 54.6 0.06 53.37 0.49 51.98 0.49L51.98 0.49Q49.97 0.49 48.46-0.39 46.95-1.27 45.93-2.73 44.92-4.2 44.41-6.1 43.89-8.01 43.89-10.08L43.89-10.08Q43.89-12.45 44.55-14.59 45.21-16.72 46.36-18.53 47.51-20.34 49.07-21.79 50.63-23.24 52.43-24.26 54.22-25.27 56.19-25.82 58.15-26.37 60.1-26.37L60.1-26.37Q62.89-26.37 65.96-25.12L65.96-25.12 69.68-26.39ZM78.66 0L75.19-25.88 81.61-25.88 82.93-8.98Q82.95-7.86 82.97-6.74 82.98-5.62 83.03-4.49L83.03-4.49 83.52-4.49Q85.37-7.01 86.88-9.57 88.4-12.13 89.56-14.79 90.72-17.46 91.55-20.21 92.38-22.97 92.91-25.88L92.91-25.88 98.85-25.88Q97.82-22.14 96.41-18.73 94.99-15.31 93.22-12.11 91.45-8.91 89.31-5.9 87.18-2.88 84.74 0L84.74 0 73.12 13.67 68.6 11.35 79.95 0 78.66 0Z" fill="#ffdc00" data-fill-palette-color="primary"></path><path d="M122.19 0.49L122.19 0.49Q119.5 0.49 117.5-0.42 115.5-1.32 114.17-2.84 112.84-4.37 112.18-6.38 111.52-8.4 111.52-10.64L111.52-10.64Q111.52-13.82 112.75-16.67 113.98-19.53 116.11-21.68 118.23-23.83 121.05-25.1 123.87-26.37 127.05-26.37L127.05-26.37Q129.76-26.37 131.76-25.46 133.76-24.56 135.09-23.02 136.42-21.48 137.08-19.46 137.74-17.43 137.74-15.19L137.74-15.19Q137.74-11.96 136.49-9.12 135.25-6.27 133.11-4.14 130.98-2 128.16-0.76 125.34 0.49 122.19 0.49ZM123.6-3.74L123.6-3.74Q125.14-3.74 126.55-4.53 127.95-5.32 129.02-6.7 130.1-8.08 130.74-9.96 131.39-11.84 131.39-14.04L131.39-14.04Q131.39-15.65 131.03-17.11 130.66-18.58 129.93-19.69 129.19-20.8 128.11-21.47 127.02-22.14 125.61-22.14L125.61-22.14Q124.04-22.14 122.64-21.34 121.24-20.53 120.16-19.12 119.09-17.7 118.45-15.81 117.82-13.92 117.82-11.77L117.82-11.77Q117.82-10.16 118.2-8.69 118.57-7.23 119.31-6.13 120.04-5.03 121.11-4.38 122.19-3.74 123.6-3.74ZM152.9-21.66L151.04-5.1Q150.8-2.93 150.36-0.44 149.92 2.05 149.36 4.52 148.8 6.98 148.12 9.22 147.45 11.45 146.75 13.09L146.75 13.09 143.03 13.09 146.97-21.66 141.76-21.66 142.55-24.63 147.45-25.88 147.6-27Q147.89-29.61 148.91-31.91 149.92-34.2 151.57-35.91 153.22-37.62 155.44-38.61 157.66-39.6 160.37-39.6L160.37-39.6Q161.47-39.6 162.59-39.43 163.71-39.26 164.76-38.89L164.76-38.89 163.3-34.69 162.79-34.45Q162.08-34.86 161.27-35.12 160.47-35.38 159.54-35.38L159.54-35.38Q158.17-35.38 157.15-34.8 156.12-34.23 155.39-33.24 154.66-32.25 154.22-30.9 153.78-29.54 153.61-27.98L153.61-27.98 153.36-25.88 161.96-25.88 160.44-21.66 152.9-21.66Z" fill="#ffffff" data-fill-palette-color="secondary"></path><path d="M177.97 0L182.43-39.11 188.37-39.11 183.9 0 177.97 0ZM191.93 0L194.88-25.88 200.79-25.88 197.84 0 191.93 0ZM198.4-30.98L198.4-30.98Q196.93-30.98 196.08-31.84 195.22-32.69 195.22-33.98L195.22-33.98Q195.22-34.77 195.55-35.46 195.88-36.16 196.44-36.67 197.01-37.18 197.75-37.48 198.5-37.77 199.33-37.77L199.33-37.77Q200.01-37.77 200.59-37.54 201.18-37.3 201.58-36.89 201.99-36.47 202.22-35.91 202.45-35.35 202.45-34.72L202.45-34.72Q202.45-33.91 202.12-33.23 201.79-32.54 201.24-32.04 200.69-31.54 199.95-31.26 199.2-30.98 198.4-30.98ZM216.51-21.66L214.65-5.1Q214.41-2.93 213.97-0.44 213.53 2.05 212.97 4.52 212.41 6.98 211.74 9.22 211.07 11.45 210.36 13.09L210.36 13.09 206.65 13.09 210.58-21.66 205.38-21.66 206.16-24.63 211.07-25.88 211.21-27Q211.51-29.61 212.52-31.91 213.53-34.2 215.18-35.91 216.83-37.62 219.05-38.61 221.27-39.6 223.98-39.6L223.98-39.6Q225.08-39.6 226.2-39.43 227.33-39.26 228.38-38.89L228.38-38.89 226.91-34.69 226.4-34.45Q225.69-34.86 224.88-35.12 224.08-35.38 223.15-35.38L223.15-35.38Q221.78-35.38 220.76-34.8 219.73-34.23 219-33.24 218.27-32.25 217.83-30.9 217.39-29.54 217.22-27.98L217.22-27.98 216.97-25.88 225.57-25.88 224.05-21.66 216.51-21.66ZM237.19 0.49L237.19 0.49Q234.94 0.49 233.06-0.27 231.18-1.03 229.81-2.44 228.45-3.86 227.69-5.87 226.93-7.89 226.93-10.42L226.93-10.42Q226.93-12.72 227.54-14.78 228.15-16.85 229.24-18.62 230.33-20.39 231.8-21.81 233.28-23.24 235-24.26 236.72-25.27 238.6-25.82 240.48-26.37 242.39-26.37L242.39-26.37Q244.39-26.37 245.91-25.79 247.44-25.22 248.47-24.27 249.49-23.32 250.02-22.09 250.54-20.87 250.54-19.56L250.54-19.56Q250.54-17.72 249.54-16.17 248.54-14.62 246.62-13.48 244.71-12.33 241.89-11.68 239.07-11.04 235.45-11.04L235.45-11.04 233.01-11.04Q233.01-9.55 233.46-8.26 233.92-6.98 234.82-6.03 235.72-5.08 237.09-4.54 238.46-4 240.29-4L240.29-4Q242.04-4 243.81-4.54 245.58-5.08 247.34-6.13L247.34-6.13 247.34-3.34Q246.17-2.32 244.86-1.59 243.56-0.85 242.23-0.39 240.9 0.07 239.6 0.28 238.31 0.49 237.19 0.49ZM241.09-22.14L241.09-22.14Q239.65-22.14 238.36-21.47 237.06-20.8 236.03-19.68 234.99-18.55 234.27-17.08 233.55-15.6 233.23-13.96L233.23-13.96 235.65-13.96Q237.87-13.96 239.59-14.33 241.31-14.7 242.5-15.34 243.68-15.99 244.3-16.87 244.93-17.75 244.93-18.77L244.93-18.77Q244.93-19.38 244.68-20 244.44-20.61 243.96-21.08 243.49-21.56 242.77-21.85 242.04-22.14 241.09-22.14Z" fill="#fce44d" data-fill-palette-color="accent"></path></g></svg></g></svg></g></svg></g></svg></g><g transform="matrix(1,0,0,1,402.91957889460855,0)"><svg viewBox="0 0 88.19768678914059 88.19768678914059" height="88.19768678914059" width="88.19768678914059"><g data-palette-color="#fce44d"><rect width="24.107367722365098" height="88.19768678914059" fill="#fce44d" stroke="transparent" data-fill-palette-color="accent" x="0" fill-opacity="1"></rect><rect width="24.107367722365098" height="88.19768678914059" fill="#fce44d" stroke="transparent" data-fill-palette-color="accent" x="29.399228929713534" fill-opacity="0.75"></rect><rect width="24.107367722365098" height="88.19768678914059" fill="#fce44d" stroke="transparent" data-fill-palette-color="accent" x="58.79845785942707" fill-opacity="0.5"></rect></g></svg></g></svg></g><defs></defs></svg><rect width="395.52" height="71.02977540460594" fill="none" stroke="none" visibility="hidden"></rect></g></svg></g></svg>